/* XPM */
static char *image[] = {
"64 64 613 2",
"   c None",
"00 c #aeccee",
"10 c #b7d3f1",
"20 c #c0dbf5",
"30 c #aacaec",
"40 c #80a9dc",
"50 c #447ac5",
"60 c #5c8dce",
"70 c #80aadd",
"80 c #6996d3",
"90 c #3c74c3",
":0 c #6b99d5",
";0 c #a6c6eb",
"A0 c #d6ecfd",
"B0 c #497fc9",
"C0 c #90b6e3",
"D0 c #d2e9fc",
"E0 c #487fca",
"F0 c #95bae6",
"G0 c #5c8fd2",
"H0 c #91b5e2",
"I0 c #95bae7",
"J0 c #6997d3",
"K0 c #71a1db",
"L0 c #cee6fa",
"M0 c #5b8bce",
"N0 c #6698d7",
"O0 c #cfe6fa",
"P0 c #5183ca",
"Q0 c #5e93d5",
"R0 c #d0e7fb",
"S0 c #d4ebfc",
"T0 c #5a8acd",
"U0 c #366fbf",
"V0 c #4a82cb",
"W0 c #6497d6",
"X0 c #6498d7",
"Y0 c #5d92d4",
"Z0 c #417cc9",
"a0 c #689ada",
"b0 c #daeeff",
"c0 c #6896d3",
"d0 c #6c9cd9",
"e0 c #add2f4",
"f0 c #75a6df",
"g0 c #90b5e2",
"h0 c #6c9dd9",
"i0 c #99bfea",
"j0 c #b8d4f2",
"k0 c #3971c1",
"l0 c #6c9eda",
"m0 c #add3f4",
"n0 c #4e8ad3",
"o0 c #bdd9f6",
"p0 c #d8eefe",
"q0 c #5486cb",
"r0 c #6d9edb",
"s0 c #679cdc",
"t0 c #92b7e3",
"u0 c #407ac9",
"v0 c #6e9fdb",
"w0 c #add3f5",
"x0 c #9cc3ed",
"y0 c #d2e8fc",
"z0 c #4077c3",
"01 c #356fbf",
"11 c #6ea0dc",
"21 c #aed3f5",
"31 c #5993d9",
"41 c #8db2e1",
"51 c #6fa0dd",
"61 c #99c1ec",
"71 c #d6ebfd",
"81 c #437ac5",
"91 c #356ebf",
":1 c #3670c0",
";1 c #70a2dd",
"A1 c #aed4f5",
"B1 c #5d97db",
"C1 c #a4c5ea",
"D1 c #366fc0",
"E1 c #3770c1",
"F1 c #3871c2",
"G1 c #3973c2",
"H1 c #5386cc",
"I1 c #739dd6",
"J1 c #84a9db",
"K1 c #7ca3d9",
"L1 c #447cc9",
"M1 c #457ecb",
"N1 c #457fcc",
"O1 c #447fcb",
"P1 c #70a3dd",
"Q1 c #add4f5",
"R1 c #649bdb",
"S1 c #72a5e0",
"T1 c #79abe3",
"U1 c #6fa2e0",
"V1 c #5d95d9",
"W1 c #adcff2",
"X1 c #6997d4",
"Y1 c #3770c0",
"Z1 c #3771c1",
"a1 c #78a0d7",
"b1 c #dae5f4",
"c1 c #f4f7fc",
"d1 c #b1c9e9",
"e1 c #5086ce",
"f1 c #4a83cd",
"g1 c #85abde",
"h1 c #71a3de",
"i1 c #4f8ad3",
"j1 c #8fbbea",
"k1 c #bee0fb",
"l1 c #77aae3",
"m1 c #7daee5",
"n1 c #d3e9fc",
"o1 c #3b73c2",
"p1 c #3871c1",
"q1 c #3e78c6",
"r1 c #b4cae9",
"s1 c #6a99d6",
"t1 c #77a1d9",
"u1 c #85acde",
"v1 c #72a4df",
"w1 c #9fc8f0",
"x1 c #5a93d7",
"y1 c #b8dcf9",
"z1 c #9ec8f1",
"02 c #5895dc",
"12 c #abcbed",
"22 c #3872c2",
"32 c #3972c2",
"42 c #3b75c5",
"52 c #3c76c6",
"62 c #aec6e7",
"72 c #dfe9f6",
"82 c #98b7e1",
"92 c #77a1d8",
":2 c #719dd7",
";2 c #84aadd",
"A2 c #b2cae9",
"B2 c #f5f8fc",
"C2 c #c7d8f0",
"D2 c #86acdf",
"E2 c #72a5df",
"F2 c #b6daf9",
"G2 c #93bfec",
"H2 c #6ca1df",
"I2 c #70a5e1",
"J2 c #85b5e8",
"K2 c #9bc7f0",
"L2 c #b3d5f5",
"M2 c #82abde",
"N2 c #3973c3",
"O2 c #3a73c3",
"P2 c #3a74c4",
"Q2 c #6e9ad5",
"R2 c #acc6e7",
"S2 c #447eca",
"T2 c #5389d0",
"U2 c #d4e2f3",
"V2 c #86ade0",
"W2 c #73a5e0",
"X2 c #a7cef3",
"Y2 c #548fd7",
"Z2 c #92bfed",
"a2 c #75aae4",
"b2 c #92beec",
"c2 c #6090d1",
"d2 c #3a74c3",
"e2 c #3b74c4",
"f2 c #d0def1",
"g2 c #ceddf1",
"h2 c #427cc9",
"i2 c #5289d1",
"j2 c #f2f6fb",
"k2 c #86aee0",
"l2 c #4984d0",
"m2 c #74a6e1",
"n2 c #badefa",
"o2 c #548ed6",
"p2 c #528ed8",
"q2 c #a7cef4",
"r2 c #afd6f7",
"s2 c #5794dd",
"t2 c #77abe6",
"u2 c #4980c9",
"v2 c #3b75c4",
"w2 c #5c8dd0",
"x2 c #6c9ad6",
"y2 c #a2c0e6",
"z2 c #87aee0",
"03 c #74a7e1",
"13 c #86b6e8",
"23 c #508ed7",
"33 c #6aa1e1",
"43 c #68a1e1",
"53 c #649fe2",
"63 c #d0e8fc",
"73 c #3c76c5",
"83 c #8eb0df",
"93 c #eaf1f9",
":3 c #437eca",
";3 c #699ad8",
"A3 c #88afe1",
"B3 c #75a8e1",
"C3 c #659ddd",
"D3 c #5591da",
"E3 c #b9dcfa",
"F3 c #85b6eb",
"G3 c #c1dcf6",
"H3 c #3c77c6",
"I3 c #3d77c6",
"J3 c #3f79c7",
"K3 c #b4cbea",
"L3 c #4c86d1",
"M3 c #88b0e2",
"N3 c #76a9e2",
"O3 c #5792d9",
"P3 c #a4cef4",
"Q3 c #9cc8f2",
"R3 c #c5e1fa",
"S3 c #b9d5f3",
"T3 c #3d78c6",
"U3 c #3e78c7",
"V3 c #407ac8",
"W3 c #cbdbf0",
"X3 c #b5cceb",
"Y3 c #e8f0f9",
"Z3 c #89b1e2",
"a3 c #76a9e3",
"b3 c #c0e2fc",
"c3 c #99c6f0",
"d3 c #aad2f6",
"e3 c #bfdcf9",
"f3 c #3e79c7",
"g3 c #3f79c8",
"h3 c #417bc9",
"i3 c #d6e3f4",
"j3 c #a1bfe6",
"k3 c #4883cf",
"l3 c #dfe9f7",
"m3 c #77aae4",
"n3 c #b3d8f8",
"o3 c #8dbded",
"p3 c #b0d7f8",
"q3 c #5b99e1",
"r3 c #b1cff0",
"s3 c #3f7ac8",
"t3 c #427cca",
"u3 c #dde7f6",
"v3 c #97b8e3",
"w3 c #dbe7f6",
"x3 c #8ab2e3",
"y3 c #78abe4",
"z3 c #b2d7f8",
"04 c #8abbed",
"14 c #b4d9f9",
"24 c #b9d9f8",
"34 c #bad6f4",
"44 c #407bc9",
"54 c #d3e1f3",
"64 c #a7c4e8",
"74 c #4b87d3",
"84 c #4c89d3",
"94 c #e2ecf8",
":4 c #8bb3e3",
";4 c #78abe5",
"A4 c #b8dbfa",
"B4 c #95c3f0",
"C4 c #c1ddf6",
"D4 c #417cca",
"E4 c #427dca",
"F4 c #427dcb",
"G4 c #437fcc",
"H4 c #c7d9f0",
"I4 c #bbd1ed",
"J4 c #4883d0",
"K4 c #eff4fb",
"L4 c #8cb4e4",
"M4 c #79ace6",
"N4 c #c1e3fd",
"O4 c #a1ccf4",
"P4 c #a7d0f6",
"Q4 c #c6e2fb",
"R4 c #437ecb",
"S4 c #437ecc",
"T4 c #a9c5e9",
"U4 c #cfdff3",
"V4 c #5892d7",
"W4 c #8cb4e5",
"X4 c #619cdf",
"Y4 c #62a0e6",
"Z4 c #d2eafd",
"a4 c #5189d1",
"b4 c #447fcc",
"c4 c #4480cd",
"d4 c #4581ce",
"e4 c #84acdf",
"f4 c #4f89d2",
"g4 c #81ade2",
"h4 c #8db5e5",
"i4 c #7aade6",
"j4 c #7eb1e8",
"k4 c #629fe3",
"l4 c #80b5ec",
"m4 c #6da9e9",
"n4 c #689ad8",
"o4 c #4580cd",
"p4 c #4581cd",
"q4 c #518ad2",
"r4 c #f7fafd",
"s4 c #8bb2e2",
"t4 c #508cd6",
"u4 c #c1d7f1",
"v4 c #8eb6e6",
"w4 c #7bafe7",
"x4 c #a8d0f6",
"y4 c #c3e4fe",
"z4 c #63a1e5",
"05 c #7fb5ed",
"15 c #89b3e4",
"25 c #4681ce",
"35 c #4682ce",
"45 c #b7cfed",
"55 c #5d94d8",
"65 c #7dabe1",
"75 c #feffff",
"85 c #8eb7e7",
"95 c #7cafe8",
":5 c #7eb2e9",
";5 c #6ea8e7",
"A5 c #9ccaf4",
"B5 c #99c6f2",
"C5 c #afd0f1",
"D5 c #4782cf",
"E5 c #4783cf",
"F5 c #4a87d2",
"G5 c #5b91d6",
"H5 c #f2f7fc",
"I5 c #e4eef9",
"J5 c #7ba8e0",
"K5 c #4f8bd5",
"L5 c #5791d9",
"M5 c #9cbfe9",
"N5 c #f8fbfd",
"O5 c #fcfdfe",
"P5 c #8fb8e7",
"Q5 c #7cb0e8",
"R5 c #c2e4fd",
"S5 c #8ebeef",
"T5 c #609ce1",
"U5 c #5e9ce2",
"V5 c #7bb2eb",
"W5 c #68a5e7",
"X5 c #b8daf9",
"Y5 c #4b86d1",
"Z5 c #4884d0",
"a5 c #4985d0",
"b5 c #7faae0",
"c5 c #fafcfe",
"d5 c #ebf2fa",
"e5 c #cedff4",
"f5 c #c8dbf2",
"g5 c #d7e5f6",
"h5 c #fafbfe",
"i5 c #c3d8f2",
"j5 c #c5d9f2",
"k5 c #90b8e7",
"l5 c #7db1e9",
"m5 c #8fbfef",
"n5 c #9dc8f3",
"o5 c #aed5f8",
"p5 c #a4cef5",
"q5 c #a6d0f6",
"r5 c #b9ddfb",
"s5 c #c5e6fe",
"t5 c #7bb3ec",
"u5 c #68a7ea",
"v5 c #76a6df",
"w5 c #4985d1",
"x5 c #4a86d1",
"y5 c #7aa8e0",
"z5 c #e8f0fa",
"06 c #fefeff",
"16 c #b1cdee",
"26 c #5895db",
"36 c #c9ddf4",
"46 c #90b9e8",
"56 c #7eb1ea",
"66 c #7eb3ea",
"76 c #5d9ce1",
"86 c #94c3f1",
"96 c #c7e7ff",
":6 c #c8e8ff",
";6 c #bbdffc",
"A6 c #7bb2ec",
"B6 c #8abcf1",
"C6 c #abcdf0",
"D6 c #4a86d2",
"E6 c #4b87d2",
"F6 c #4b88d3",
"G6 c #4d8ad5",
"H6 c #4e8bd6",
"I6 c #5590d7",
"J6 c #93b8e6",
"K6 c #c8dcf2",
"L6 c #e6eff9",
"M6 c #f6f9fd",
"N6 c #edf4fb",
"O6 c #dbe7f7",
"P6 c #adcaed",
"Q6 c #70a3e0",
"R6 c #d0e1f5",
"S6 c #91bae9",
"T6 c #71a8e6",
"U6 c #9fcbf3",
"V6 c #68a3e5",
"W6 c #6fa8e7",
"X6 c #96c6f2",
"Y6 c #b4dafa",
"Z6 c #c0e3fd",
"a6 c #c6e6fe",
"b6 c #bee0fc",
"c6 c #acd4f8",
"d6 c #8bbdf0",
"e6 c #65a4e7",
"f6 c #b4d7f8",
"g6 c #d7ecfe",
"h6 c #5890d7",
"i6 c #4c88d3",
"j6 c #4c89d4",
"k6 c #d7e5f7",
"l6 c #92bae9",
"m6 c #97bfea",
"n6 c #4d89d4",
"o6 c #4d8ad4",
"p6 c #4e8ad5",
"q6 c #dbe8f8",
"r6 c #92bbea",
"s6 c #a4cff7",
"t6 c #d3eafd",
"u6 c #5891d8",
"v6 c #4e8bd5",
"w6 c #4f8bd6",
"x6 c #5390da",
"y6 c #93bceb",
"z6 c #71afee",
"07 c #d4ebfe",
"17 c #9dc4ed",
"27 c #4f8cd6",
"37 c #508dd7",
"47 c #518fd8",
"57 c #5492da",
"67 c #5693dc",
"77 c #94bdeb",
"87 c #6a9fdf",
"97 c #518ed7",
":7 c #518ed8",
";7 c #528fd8",
"A7 c #5290d9",
"B7 c #dbe9f8",
"C7 c #94beeb",
"D7 c #7eb7f1",
"E7 c #bedbf7",
"F7 c #5491d9",
"G7 c #528fd9",
"H7 c #5390d9",
"I7 c #5593db",
"J7 c #95beec",
"K7 c #6daeef",
"L7 c #c3e1fc",
"M7 c #9dc4ee",
"N7 c #5391da",
"O7 c #5491da",
"P7 c #5492db",
"Q7 c #5694dd",
"R7 c #5796de",
"S7 c #5997de",
"T7 c #5a98df",
"U7 c #dce9f9",
"V7 c #a9d1f8",
"W7 c #7eafe6",
"X7 c #5592db",
"Y7 c #5593dc",
"Z7 c #dceaf9",
"a7 c #ffffff",
"b7 c #96bfed",
"c7 c #8ec2f5",
"d7 c #74a7e4",
"e7 c #5694dc",
"f7 c #5795dd",
"g7 c #5897de",
"h7 c #82b3e9",
"i7 c #8cb9ec",
"j7 c #8cbaec",
"k7 c #70a8e8",
"l7 c #85bcf3",
"m7 c #6da4e3",
"n7 c #5896de",
"o7 c #5997df",
"p7 c #5d9be2",
"q7 c #80b9f3",
"r7 c #d1e8fc",
"s7 c #76aae6",
"t7 c #5998df",
"u7 c #5a98e0",
"v7 c #5a99e0",
"w7 c #5c9be1",
"x7 c #86bdf4",
"y7 c #d3eafe",
"z7 c #d5ecfd",
"08 c #82b4ea",
"18 c #5b99e0",
"28 c #5b9ae1",
"38 c #5c9ae1",
"48 c #5c9be2",
"58 c #5e9ee4",
"68 c #62a1e7",
"78 c #8fc3f6",
"88 c #d6edfe",
"98 c #dbefff",
":8 c #a1c8f1",
";8 c #5f9de3",
"A8 c #5d9ce2",
"B8 c #5d9ce3",
"C8 c #5e9de3",
"D8 c #5f9fe5",
"E8 c #62a1e6",
"F8 c #a9d2f9",
"G8 c #d9eefe",
"H8 c #c0ddf9",
"I8 c #75ace8",
"J8 c #5e9de4",
"K8 c #5f9ee4",
"L8 c #5f9fe4",
"M8 c #609fe5",
"N8 c #63a2e7",
"O8 c #64a4e8",
"P8 c #66a7eb",
"Q8 c #6bacee",
"R8 c #82bcf4",
"S8 c #c4e2fc",
"T8 c #d9eeff",
"U8 c #a4cbf3",
"V8 c #69a4e7",
"W8 c #60a0e5",
"X8 c #61a0e6",
"Y8 c #61a1e6",
"Z8 c #64a3e8",
"a8 c #66a6eb",
"b8 c #67a8ec",
"c8 c #68a9ed",
"d8 c #6babee",
"e8 c #6daff1",
"f8 c #76b4f3",
"g8 c #aad3f9",
"h8 c #d8eeff",
"i8 c #daf0ff",
"j8 c #d4ebfd",
"k8 c #a1cbf3",
"l8 c #6da8e9",
"m8 c #62a2e7",
"n8 c #63a3e8",
"o8 c #64a4e9",
"p8 c #65a5ea",
"q8 c #67a8eb",
"r8 c #6cadef",
"s8 c #6daef0",
"t8 c #6eaff1",
"u8 c #78b6f3",
"v8 c #a7d2f9",
"w8 c #b3d6f7",
"x8 c #88bbef",
"y8 c #67a6ea",
"z8 c #65a5e9",
"09 c #65a6ea",
"19 c #66a6ea",
"29 c #67a7eb",
"39 c #68a8ec",
"49 c #68a9ec",
"59 c #6cadf0",
"69 c #6caef0",
"79 c #6daef1",
"89 c #70b1f1",
"99 c #8fc2f6",
":9 c #b7dafb",
";9 c #d7edfe",
"A9 c #b9daf9",
"B9 c #9ac8f4",
"C9 c #82b8f0",
"D9 c #72afee",
"E9 c #69a9ec",
"F9 c #69a9ed",
"G9 c #69aaed",
"H9 c #6aaaee",
"I9 c #6aabee",
"J9 c #6bacef",
"K9 c #6dadf0",
"L9 c #76b4f1",
"M9 c #87bdf4",
"N9 c #9eccf7",
"O9 c #badcfb",
"P9 c #d5ecfe",
"Q9 c #c7e4fc",
"R9 c #c2e0fb",
"S9 c #bdddfb",
"T9 c #c2e0fc",
"U9 c #c8e4fd",
"V9 c #d3ebfe",
"W9 c #daefff",
"X9 c #d9efff",
"                                                                                                                                ",
"                                                  X9W9W9W9W9W9W9W9W9W9W9W9W9X9                                                  ",
"                                            X9W9W9W9W9W9V9U9T9S9S9R9Q9V9W9W9W9W9W9X9                                            ",
"                                      W9W9W9W9P9O9N9M9L9K9J9J9I9H9G9F9E9D9C9B9A9P9W9W9W9W9                                      ",
"                                  W9W9W9;9:99989796959J9J9I9I9G9F9493929291909z8y8x8w8;9W9W9W9                                  ",
"                              X9W9W9P9v8u8t879s859r8J9I9I9G9F94939q8291919p8z8o8n8n8m8l8k8j8W9W9X9                              ",
"                            i8W9h8g8f8t8e8s859r8J9d8I9G9G9c839b829a819p8z8o8Z8n8m8m8Y8X8W8V8U8T8W9i8                            ",
"                          W9W9S8R8t8e8s859r8J9Q8I9H9G9c839b829P819p8z8o8O8n8N8m8Y8X8W8M8L8K8J8I8H8W9G8                          ",
"                      X9W9W9F889e8s85959J9J9I9H9G9F9493929P819p8z8o8O8n8N8m8E8Y8X8M8D8K8J8C8B8A8;8:8W9W998                      ",
"                    X9W98878t8796959J9J9I9I9G9F9493929291909z8o8O8n8N8m868Y8X8M8M8K858C8B8A84838281808z7W9X9                    ",
"                  X9W9y7x779s859J9J9I9I9G9F94939q8291919z8o8o8n8n8m868Y8X8W8M8K8K8C8B8A848w72818v7u7t7s7r7W9X9                  ",
"                W9W9y7q7s859r8J9I9I9G9G94939q829a819p8z8o8Z8n8m8m8Y8X8W8M8K8K8C8C8A8p7482828v7u7t7o7n7n7m7r7W9X9                ",
"                W988l759r8J9Q8I9H9G9c839b829P819p8z8o8O8n8m8m8Y8X8W8k7j7i7h7C8B8p7483828v7u7t7o7g7n7f7f7e7d7z7W9                ",
"              W9W9c7r8J9J9I9H9G9F949b829P819p8z8o8O8n8N8m8E8X8W8M8D8b7a7a7Z7A848382818u7t7o7g7n7f7f7e7e7Y7X7W7W9G8              ",
"            i8W9V7J9J9I9H9G9F9493929P81909z8o8O8n8N8m868Y8X8M8M8K858b7a7a7U7382818v7T7o7S7n7R7f7Q7e7Y7X7P7O7N7M7W9i8            ",
"          X9W9L7K7I9I9G9F94939q8291919z8o8o8n8n8m868Y8X8M8M8K8K8C8B8J7a7a7U718v7T7o7o7n7n7f7Q7e7Y7I7P7O7N7H7G7F7E7W9X9          ",
"          W9T8D7I9G9F94939q8291919p8z8o8n8n8m868Y8X8W8M8K8K8C8C8A848C7a7a7B7u7t7o7n7n7f7f7e7Y7I7P7O7N7H7A7;7:79787T8W9          ",
"        W9W9V7G9G9c839b829P819p8z8o8Z8n8m8m8Y8X8W8M8L8K8C8C8B8p7483877a7a7B7o7g7n7f7f7e767I7X757N7H7A7G747:737372717W9W9        ",
"        W907z6F949b829P819p8z8o8O8n8N8m8E8X8W8M8D8K8J8C8B8A848382818y6a7a7B7n7f7f7e767I7X7P7O7x6A7G747:7373727w6v6u6t6W9        ",
"      W9W9s6493929P819p8z8o8O8n8N8m8E8Y8X8M8D8K8J8C8B8A848382818v7T7r6a7a7q6f7Q7e7Y7X7P7O7N7H7G7;7:737372727v6p6o6n6m6W9X9      ",
"      W9;9D929291909z8o8O8n8n8m868Y8X8M8M8K8K8C8B8A848w72818v7T7o7o7l6a7a7k6e7Y7I7P7O7N7H7G7;7:797372727v6p6o6n6j6i6h6g6W9      ",
"      W9f6291919p8z8o8n8n8m868e6d6c6b6a6Z6Y6X6W648w7V6U6U6T6t7o7n7n7S6a7a7R6I7P7Q6P6O6N6M6L6K6J6I627H6v6G6n6j6i6F6E6D6C6W9      ",
"    X9W9B619p8z8o8Z8n8m8m8Y8A6;6:6:6:6:6:6:6:696867666:6:656n7n7f7f746a7a736261606a7a7a7a7a7a7a7z5y5p6o6j6i6F6E6D6x5w5v5W998    ",
"    W9P9u5z8o8O8n8N8m8Y8X8t5s5:6:6:6r5q5p5o5s5:6:6n5m5:6:6l5f7f7e767k5a7a7j5i5a7a7h5g5f5e5d5a7a7a7c5b5i6F6E6D6x5w5a5Z5Y5t6W9    ",
"    W9X5o8O8n8N8m8E8Y8X8W5Z6:6:6b6V5U5483828T5S5a6:6R5:6:6Q5e7e7Y7X7P5a7a7O5a7N5M5L5372727K5J5I5a7a7H5G5F5D6w5w5Z5Z5E5D5C5W9    ",
"  X9W9B5n8N8m868Y8X8M8M8A5:6:6R5;548382818v7T7o7:5:6:6:6:695Y7X7P7O785a7a7a77565372727v6p6o6n655d5a7a745x5w5Z5Z5E5D5352515W9X9  ",
"  W9W905m868Y8X8W8M8K8z4y4:6:6S5w72818v7u7t7o7n7n7x4:6:6:6w4P7O7N7H7v4a7a7a7u4t427H6v6G6n6j6i6F6s4a7a7r4q4Z5E5E53525p4o4n4W9W9  ",
"  W9W9m4Y8X8W8M8K8K8C8l4:6:6a6k428v7u7t7o7n7n7f7f7j4:6:6:6i4N7H7A7;7h4a7a7a7g4w6v6G6n6j6i6F6E6D6f4M6a7a7e4E53525d4o4c4b4a4W9W9  ",
"  W9Z4Y4W8M8L8K8C8C8B886:6:6o5v7u7t7o7g7n7f7f7e767X4:6:6:6i4A7G747:7W4a7a7a7V4p6o6j6i6F6E6D6x5w5a5U4a7a7T43525o4c4b4S4R4R4r7W9  ",
"  W9Q4M8D8K8J8C8B8A848P4:6:6O4t7o7g7n7f7f7e7e7Y7X7X7N4:6:6M447:73737L4a7a7K4o6n6i6i6E6F5D6w5w5Z5J4I4a7a7H4o4o4b4G4R4F4E4D4C4W9  ",
"  W9H8K858C8B8A8483828o5:6:6B4S7n7R7f7Q7e7Y7X7P7O7N7A4:6:6;437372727:4a7a79484i674E6D6w5w5Z5Z5E5D564a7a754b4b4R4F4E4D4D44434W9  ",
"  W924C8B8A848w72818v714:6:604n7f7Q7e7Y7I7P7O7N7H7G7z3:6:6y32727v6v6x3a7a7w374E6D6x5w5Z5Z5E5E53525v3a7a7u3S4R4F4t3D44444s3r3W9  ",
"  W924A848w728q3v7u7t7p3:6:6o3f7e7Y7I7P7O7N7H7A7;7:7n3:6:6m3w6v6G6n6x3a7a7l3D6x5w5a5Z5k3E53525p4o4j3a7a7i3F4t3D4h344s3g3f3r3W9  ",
"  W9e3483828v7u7t7o7g7d3:6:6c367I7P757N7H7A7;7:7:737b3:6:6a3p6o6j6i6Z3a7a7Y3w5a5Z5k3E5D535d4o4c4b4X3a7a7W3D4h344V3g3f3U3T3S3W9  ",
"  W9R32818u7t7o7g7n7f7Q3:6:6P3X7P7O7x6A7G747:73737O3:6:6:6N3n6i6F6E6M3a7a7O5L3J4E5D53525o4o4b4G4R4H4a7a7K344V3s3J3U3U3I3H3G3W9  ",
"  W9Z418T7o7g7n7f7f7Q7F3:6:6E3D3N7H7G7;7:737372727C3:6:6:6B3i674E6D6A3a7a7a7;3D53525p4o4b4G4R4F4:393a7a783s3g3U3U3I3I3737363W9  ",
"  W9W953o7n7n7f7Q7e7Y743:6:6:633G7;7:723372727v6p613:6:6:603E6D6x5w5z2a7a7a7y225p4o4b4b4R4R4F4D4x2a7a7a7w2f3U3I3I37373v2u2W9W9  ",
"  W9W9t2n7f7s2e7Y7I7P7O7r2:6:6q2p29737t427H6v6G6o2n2:6:6:6m2x5w5l2Z5k2a7a7a7j2i2c4b4S4R4F4t3D4h2g2a7a7f2U3T3I37373v2e2d2c2W9W9  ",
"  X9W9b2f7e767I7P757N7H7a2:6:6:6Z2;727w6v6p6o6Y2X2:6:6:6:6W2a5Z5k3E5V2a7a7a7a7U2T2R4F4E4D4h3S2R2a7a7a7Q2I37373v2v2P2O2N2M2W9X9  ",
"    W9L267I7X7P7O7x6A7G747K2:6:6:6n3J2I2H2a3G2b3:6F2X2:6:6E2J4E5D535D2a7a7C2j2a7B2A2;2:2928272a7a7a762527342v2P2O2N2322212W9    ",
"    W9j802P7O7x6H7G747:737;7z1:6:6:6:6:6:6:6:6:6y1x1w1:6:6v1D53525o4u1a7a7t1s1j2a7a7a7a7a7a7a7a7a7r1q142v2P2d2N23222p1o1n1W9    ",
"    X9W9m1N7H7G7;7:723372727K5l1n3:6:6:6:6:6k1j1i1Z5X2:6:6h125p4o4b4g1a7O5f1D4e1d1c1a7a7a7a7a7b1a142v2P2d2N23222p1Z1Y1X1W998    ",
"      W9W1A7;7:79737t427v6v6G6n6j6V1U1T1S1R1E6Z5Z5E5Q1:6:6P1o4b4b4S4O1N1M1D44444s3L1X1K1J1I1H173v2e2d2N2G122F1Z1E1D1D1C1W9      ",
"      W9g6B197373727w6v6G6n6j6i6F6E6D6x5w5a5Z5k3E535A1:6:6;1b4S4R4F4E4D4h344s3g3f3U3T3I37373v2v2P2O2N232F1Z1E1:1D1918171W9      ",
"      W9W9613727w6v6p6o6j6i6F6E6D6x5w5a5Z5J4E5D53525A1:6:651R4F4E4D4h344V3s3f3U3T3I3737342v2P2O2N232F1p1E1:1D191919141W9X9      ",
"        W9t631v6p6o6n6i6F6E6F5x5w5w5Z5J4E5D53525o4o421:6:611E4D4h344V3s3J3U3U3I3H37342v2P2O2N23222p1E1Y1D101919191z0y0W9        ",
"        W9W9x0o6n684i674E6D6w5w5Z5Z5E5D53525p4o4b4b4w0:6:6v0D444u0s3g3f3U3I3I37342v2P2d2N23222p1Z1Y1D1D19191919191t0W9W9        ",
"          W9T8s0i674E6D6x5w5Z5Z5E5E53525p4o4b4b4S4R4w0:6:6r044s3g3f3U3I3I37373v2P2d2N23222p1Z1E1D1D1919191919191q0p0W9          ",
"          X9W9o0n0D6x5w5l2Z5E5E53525p4o4c4b4S4R4F4t3m0:6:6l0g3f3U3T3I37373v2e2d2O2N222F1Z1E1:1D191919191919191k0j0W9X9          ",
"            i8W9i0w5a5Z5k3E5D535d4o4c4b4S4R4F4E4D4h3m0:6:6h0U3T3I3737342v2P2O2N232F1p1E1:1D1919191919191919191g0W9i8            ",
"              W9W9f0J4E5D53525o4o4b4G4R4F4E4D4h344V3e0:6:6d0I3H37342v2P2O2N23222p1E1:1D191919191919191919191c0W9b0              ",
"                W9j8a03525o4o4b4G4R4F4E4D4Z044u0s3g3Y0X0W0V07342v2P2d2N23222p1E1Y1D1U091919191919191919191T0S0W9                ",
"                X9W9R0Q0o4b4b4R4R4F4D4D444u0s3g3f3U3I3I37373v2P2d2N23222p1Z1E1D1D19191919191919191919191P0O0W998                ",
"                  X9W9R0N0S4R4F4t3D4h344s3g3f3U3T3I37373v2e2d2O2G122F1Z1E1D1D1919191919191919191919191M0L0W9X9                  ",
"                    X9W9j8K0E4D4h344s3g3f3U3T3I37373v2v2P2O2N232F1Z1E1:1D191919191919191919191919191J0S0W9X9                    ",
"                      X9W9W9I0:3V3s3J3U3T3I3527342v2P2O2N23222p1E1:1D191919191919191919191919191k0H0W9W998                      ",
"                          G8W934G0U3U3I3I37342v2P2d2N23222p1E1Y1D10191919191919191919191919191q0j0W9b0                          ",
"                            i8W9p0F0E07342v2P2d2N23222p1Z1Y1D1D191919191919191919191919191z0t0p0W9i8                            ",
"                              X9W9W9D0C0B0d2N2G122F1Z1E1D1D1919191919191919191919191918141y0W9W9                                ",
"                                  W9W9W9A0;0:090Z1E1:1D1919191919191919191919191k080C171W9W9W9                                  ",
"                                      X9W9W9W9n112706050U0919191919191U050604030D0W9W9W9X9                                      ",
"                                            98W9W9W9W9W9R0201000001020R0W9W9W9W9W998                                            ",
"                                                  X9W9W9W9W9W9W9W9W9W9W9W9W9X9                                                  ",
"                                                                                                                                "};
