/* XPM */
static char *image[] = {
"64 64 328 2",
"   c None",
"00 c #0773a9",
"10 c #0883c0",
"20 c #077fbb",
"30 c #087bb5",
"40 c #0879b2",
"50 c #087eb9",
"60 c #0982be",
"70 c #087fba",
"80 c #087ab5",
"90 c #097fba",
":0 c #0983bf",
";0 c #0a7fb9",
"A0 c #0a80bb",
"B0 c #0a84c0",
"C0 c #097fb9",
"D0 c #0b81bc",
"E0 c #0a81bc",
"F0 c #0a85c1",
"G0 c #0c7fb9",
"H0 c #0c85c1",
"I0 c #0b81bd",
"J0 c #0b82bd",
"K0 c #0b85c1",
"L0 c #0c7fb7",
"M0 c #0c82bd",
"N0 c #0c84bf",
"O0 c #0c84c1",
"P0 c #0d83be",
"Q0 c #0d87c5",
"R0 c #0f89c6",
"S0 c #0e84bf",
"T0 c #0d84bf",
"U0 c #0d89c6",
"V0 c #0e84c0",
"W0 c #0e85c0",
"X0 c #0e87c4",
"Y0 c #0e82bd",
"Z0 c #0f85c0",
"a0 c #0f85c1",
"b0 c #0f87c2",
"c0 c #1082bd",
"d0 c #1086c1",
"e0 c #1089c6",
"f0 c #1087c2",
"g0 c #118ac7",
"h0 c #1088c2",
"i0 c #1487c3",
"j0 c #82bede",
"k0 c #98c9e3",
"l0 c #53a6d2",
"m0 c #0f85c2",
"n0 c #1188c3",
"o0 c #1086c2",
"p0 c #1188c4",
"q0 c #88c1e0",
"r0 c #c0deee",
"s0 c #2a91c8",
"t0 c #1289c4",
"u0 c #1288c4",
"v0 c #128cc9",
"w0 c #0f86c3",
"x0 c #eaf4f9",
"y0 c #f1f8fb",
"z0 c #66afd7",
"01 c #1087c3",
"11 c #1389c4",
"21 c #1389c3",
"31 c #3097cb",
"41 c #b8daed",
"51 c #2791c9",
"61 c #138ac5",
"71 c #148ecb",
"81 c #5dadd7",
"91 c #f0f7fb",
":1 c #65afd8",
";1 c #1188c5",
"A1 c #148bc6",
"B1 c #148ac6",
"C1 c #1387c2",
"D1 c #87c3e2",
"E1 c #b3d8ec",
"F1 c #2591c9",
"G1 c #158bc7",
"H1 c #158cc8",
"I1 c #b3d9ec",
"J1 c #edf6fa",
"K1 c #61aed8",
"L1 c #138ac7",
"M1 c #158cc7",
"N1 c #168cc8",
"O1 c #1690cd",
"P1 c #1088c6",
"Q1 c #e0eff7",
"R1 c #9ecee7",
"S1 c #148bc7",
"T1 c #168dc8",
"U1 c #158ac4",
"V1 c #1d90ca",
"W1 c #178ec9",
"X1 c #168cc6",
"Y1 c #43a3d3",
"Z1 c #e2f0f8",
"a1 c #1e90cb",
"b1 c #188fca",
"c1 c #188eca",
"d1 c #1890cc",
"e1 c #6ab5dc",
"f1 c #e6f3f9",
"g1 c #339bd0",
"h1 c #178eca",
"i1 c #2c98cf",
"j1 c #6eb8dd",
"k1 c #78bde0",
"l1 c #54abd8",
"m1 c #2092cc",
"n1 c #158dc9",
"o1 c #198fcb",
"p1 c #188fcb",
"q1 c #1995d3",
"r1 c #92c9e6",
"s1 c #e3f1f8",
"t1 c #329bd0",
"u1 c #1a90cc",
"v1 c #1f91cc",
"w1 c #9acde7",
"x1 c #fafdfe",
"y1 c #fbfdfe",
"z1 c #c7e3f2",
"02 c #7cbee1",
"12 c #349cd1",
"22 c #148dca",
"32 c #1990cc",
"42 c #1990cb",
"52 c #1991cd",
"62 c #178fcc",
"72 c #bbdeef",
"82 c #dbedf6",
"92 c #2f98d0",
":2 c #188fcc",
";2 c #4ea8d7",
"A2 c #e1f0f8",
"B2 c #cee6f4",
"C2 c #49a6d6",
"D2 c #1a91cc",
"E2 c #148dcb",
"F2 c #e3f2f9",
"G2 c #d2e8f4",
"H2 c #2997cf",
"I2 c #1f92cd",
"J2 c #9acde8",
"K2 c #b4daee",
"L2 c #1890cd",
"M2 c #1b91cd",
"N2 c #1b92cd",
"O2 c #2194cf",
"P2 c #fdfefe",
"Q2 c #c4e3f2",
"R2 c #2295cf",
"S2 c #1a91cd",
"T2 c #4ba8d7",
"U2 c #dfeff7",
"V2 c #fafcfe",
"W2 c #a4d3eb",
"X2 c #2998d0",
"Y2 c #1b92ce",
"Z2 c #198bc3",
"a2 c #1b8ec7",
"b2 c #43a5d7",
"c2 c #bcdef0",
"d2 c #1f94cf",
"e2 c #98cce8",
"f2 c #ecf6fb",
"g2 c #89c6e5",
"h2 c #2c9ad2",
"i2 c #1a92ce",
"j2 c #1c93cf",
"k2 c #1b8cc7",
"l2 c #66b6de",
"m2 c #b5daef",
"n2 c #1e93cf",
"o2 c #1b93cf",
"p2 c #4ca9d9",
"q2 c #deeff7",
"r2 c #d3eaf5",
"s2 c #6cb9e0",
"t2 c #1d93cf",
"u2 c #1d94cf",
"v2 c #8bc8e7",
"w2 c #b2d9ee",
"x2 c #1e93d0",
"y2 c #99cee9",
"z2 c #fefefe",
"03 c #b3dbef",
"13 c #4eabda",
"23 c #1992cf",
"33 c #1e95d0",
"43 c #1f97d3",
"53 c #1d95d1",
"63 c #acd7ed",
"73 c #baddf0",
"83 c #1c93d0",
"93 c #52addb",
":3 c #e0f0f8",
";3 c #f0f8fc",
"A3 c #92cbe8",
"B3 c #349fd5",
"C3 c #1c94d0",
"D3 c #1e95d1",
"E3 c #1e97d3",
"F3 c #1892d0",
"G3 c #d4ebf6",
"H3 c #8cc8e7",
"I3 c #a7d5ec",
"J3 c #d8edf7",
"K3 c #74bde2",
"L3 c #2196d2",
"M3 c #1f96d1",
"N3 c #1f96d2",
"O3 c #209cda",
"P3 c #1a94d1",
"Q3 c #f2f9fc",
"R3 c #fcfdfe",
"S3 c #b7ddf0",
"T3 c #54aedc",
"U3 c #1b94d1",
"V3 c #2097d3",
"W3 c #2097d2",
"X3 c #2099d5",
"Y3 c #2c9cd5",
"Z3 c #eff7fc",
"a3 c #93cce9",
"b3 c #36a1d7",
"c3 c #1d96d3",
"d3 c #2198d3",
"e3 c #2098d3",
"f3 c #2196d0",
"g3 c #49abdc",
"h3 c #cfe8f5",
"i3 c #6ebce3",
"j3 c #2298d4",
"k3 c #2199d4",
"l3 c #2198d4",
"m3 c #2195d1",
"n3 c #62b6e1",
"o3 c #f6fafd",
"p3 c #a5d5ed",
"q3 c #48aadc",
"r3 c #1d97d4",
"s3 c #2299d5",
"t3 c #239dda",
"u3 c #6abae2",
"v3 c #d5ecf7",
"w3 c #79c1e6",
"x3 c #299cd6",
"y3 c #2199d5",
"z3 c #239ad6",
"04 c #3ba6db",
"14 c #f1f8fc",
"24 c #ffffff",
"34 c #e5f3fa",
"44 c #98d0ec",
"54 c #48abdd",
"64 c #1e98d5",
"74 c #249bd6",
"84 c #239bd7",
"94 c #239bd6",
":4 c #239ad4",
";4 c #25a0dd",
"A4 c #31a1d9",
"B4 c #1e98d6",
"C4 c #249bd7",
"D4 c #249cd7",
"E4 c #26a0dd",
"F4 c #259cd8",
"G4 c #259ed9",
"H4 c #269dd9",
"I4 c #27a1dd",
"J4 c #269ed9",
"K4 c #269eda",
"L4 c #27a1da",
"M4 c #279fda",
"N4 c #279eda",
"O4 c #28a3de",
"P4 c #28a3df",
"Q4 c #289fdb",
"R4 c #28a2df",
"S4 c #29a0dc",
"T4 c #28a0dc",
"U4 c #29a2dd",
"V4 c #29a1dd",
"W4 c #2ba7e2",
"X4 c #2ba9e0",
"Y4 c #2aa2de",
"Z4 c #2aa2dd",
"a4 c #2aa1dd",
"b4 c #2ba8e0",
"c4 c #2ba2de",
"d4 c #2ca9e1",
"e4 c #2ca8e3",
"f4 c #2ca5e0",
"g4 c #2ba3df",
"h4 c #2ca5e1",
"i4 c #2ca8e2",
"j4 c #2ca4e0",
"k4 c #2ea7e4",
"l4 c #2da5e1",
"m4 c #2eaae3",
"n4 c #2faae5",
"o4 c #2ea6e1",
"p4 c #2ea5e1",
"q4 c #2eaae5",
"r4 c #2fa9e1",
"s4 c #30abe6",
"t4 c #2ea6e2",
"u4 c #2fa8e0",
"v4 c #30a9e4",
"w4 c #2fa7e3",
"x4 c #30abe7",
"y4 c #2fa9e4",
"z4 c #30a9df",
"05 c #30a8e4",
"15 c #30a9e5",
"25 c #32aeea",
"35 c #30aae6",
"45 c #30a8e1",
"55 c #30a7e1",
"65 c #2fa4dd",
"                                                                                                                                ",
"                                                                                                                                ",
"                                                                                                                                ",
"                                                              6565                                                              ",
"                                                55453525150505050505051525354555                                                ",
"                                          z4y4x4w4w4w4w4w4w4w4w4w4w4w4w4w4w4w4w4x4v4z4                                          ",
"                                      u4x4t4t4t4t4t4t4t4t4t4t4t4t4t4t4t4t4t4t4t4t4t4t4s4u4                                      ",
"                                  r4q4p4p4p4p4o4p4p4p4o4p4p4p4o4p4p4p4o4p4p4p4o4p4p4p4o4p4n4r4                                  ",
"                                m4l4l4l4l4l4l4l4l4l4l4l4l4l4l4l4l4l4l4l4l4l4l4l4l4l4l4l4l4l4l4m4                                ",
"                              k4j4j4j4j4j4j4j4j4j4j4j4j4j4j4j4j4j4j4j4j4j4j4j4j4j4j4j4j4j4j4j4j4k4                              ",
"                          i4h4g4g4g4g4g4g4g4g4g4g4g4g4g4g4g4g4g4g4g4g4g4g4g4g4g4g4g4g4g4g4g4g4g4g4f4e4                          ",
"                        d4g4c4c4c4c4c4c4c4c4c4c4c4c4c4c4c4c4c4c4c4c4c4c4c4c4c4c4c4c4c4c4c4c4c4c4c4c4c4d4                        ",
"                      b4a4Z4Z4Y4Z4Z4Z4Y4Z4Z4Z4Y4Z4Z4Z4Y4Z4Z4Z4Y4Z4Z4Z4Y4Z4Z4Z4Y4Z4Z4Z4Y4Z4Z4Z4Y4Z4Z4Z4a4X4                      ",
"                    W4V4V4V4V4V4V4V4V4V4V4V4V4V4V4V4V4V4V4V4V4V4V4V4V4V4V4V4V4V4V4V4V4V4V4V4V4V4V4V4V4V4V4W4                    ",
"                    U4T4S4T4S4T4S4T4S4T4S4T4S4T4S4T4S4T4S4T4S4T4S4T4S4T4S4T4S4T4S4T4S4T4S4T4S4T4S4T4S4T4S4U4                    ",
"                  R4Q4Q4Q4Q4Q4Q4Q4Q4Q4Q4Q4Q4Q4Q4Q4Q4Q4Q4Q4Q4Q4Q4Q4Q4Q4Q4Q4Q4Q4Q4Q4Q4Q4Q4Q4Q4Q4Q4Q4Q4Q4Q4Q4Q4P4                  ",
"                O4N4M4M4M4N4M4M4M4N4M4M4M4N4M4M4M4N4M4M4M4N4M4M4M4N4M4M4M4N4M4M4M4N4M4M4M4N4M4M4M4N4M4M4M4N4M4O4                ",
"              L4K4J4K4K4K4J4K4K4K4J4K4K4K4J4K4K4K4J4K4K4K4J4K4K4K4J4K4K4K4J4K4K4K4J4K4K4K4J4K4K4K4J4K4K4K4J4K4K4L4              ",
"              I4H4H4H4H4H4H4H4H4H4H4H4H4H4H4H4H4H4H4H4H4H4H4H4H4H4H4H4H4H4H4H4H4H4H4H4H4H4H4H4H4H4H4H4H4H4H4H4H4I4              ",
"            G4F4F4F4F4F4F4F4F4F4F4F4F4F4F4F4F4F4F4F4F4F4F4F4F4F4F4F4F4F4F4F4F4F4F4F4F4F4F4F4F4F4F4F4F4F4F4F4F4F4F4G4            ",
"            E4D4D4C4D4D4D4C4D4D4D4C4D4D4D4C4D4D4D4C4D4D4D4C4D4D4D4C4D4D4D4C4D4D4D4C4B4A4C4D4D4D4D4C4D4D4D4C4D4D4D4;4            ",
"          :494849494948494949484949494849494948494949484949494849494948494947464544434241404948494949484949494849494:4          ",
"          84z3z3z3z3z3z3z3z3z3z3z3z3z3z3z3z3z3z3z3z3z3z3z3z3z3z3z3z3z3z3y3x3w3v32424242424u3z3z3z3z3z3z3z3z3z3z3z3z384          ",
"          t3s3s3s3s3s3s3s3s3s3s3s3s3s3s3s3s3s3s3s3s3s3s3s3s3s3s3s3s3r3q3p3o324242424242424n3s3s3s3s3s3s3s3s3s3s3s3s3t3          ",
"        m3l3l3k3l3l3l3k3l3l3l3k3l3l3l3k3l3l3l3k3l3l3l3k3l3l3l3l3j3i3h324242424242424242424g3l3k3l3l3l3k3l3l3l3k3l3l3l3m3        ",
"        f3e3d3d3e3e3d3d3e3e3d3d3e3e3d3d3e3e3d3d3e3e3d3d3e3c3b3a3Z3242424242424242424242424Y3d3d3e3e3d3d3e3e3d3d3e3e3d3f3        ",
"        X3W3V3V3V3W3V3V3V3W3V3V3V3W3V3V3V3W3V3V3V3W3V3U3T3S3R324242424242424242424242424Q3P3V3V3V3W3V3V3V3W3V3V3V3W3V3X3        ",
"        O3N3N3N3N3N3N3N3N3N3N3N3N3N3N3N3N3N3N3N3M3L3K3J32424242424242424I3H3242424242424G3F3N3N3N3N3N3N3N3N3N3N3N3N3N3O3        ",
"        E3D3D3D3D3D3D3D3D3D3D3D3D3D3D3D3D3D3C3B3A3;32424242424242424:39383732424242424246353D3D3D3D3D3D3D3D3D3D3D3D3D343        ",
"        33333333333333333333333333333333231303R32424242424242424z2y2m3x2w224242424242424v2333333333333333333333333333333        ",
"        u2u2u2u2u2u2u2u2u2u2u2u2u2u2t2s2r224242424242424242424q2p2o2n2m22424242424242424l2u2u2u2u2u2u2u2u2u2u2u2u2u2u2u2        ",
"      k2j2j2j2j2j2j2j2j2j2j2j2i2h2g2f224242424242424242424z2e2d2j2d2c2242424242424242424b2j2j2j2j2j2j2j2j2j2j2j2j2j2j2j2a2      ",
"      Z2Y2Y2Y2Y2Y2Y2Y2Y2Y2Y2X2W2V22424242424242424242424U2T2S2Y2R2Q2242424242424242424P2O2Y2Y2Y2Y2Y2Y2Y2Y2Y2Y2Y2Y2Y2Y2Y2Z2      ",
"        N2M2N2N2N2M2N2N2N2L2K22424242424242424242424z2J2I2N2N2H2G224242424242424242424F2E2M2N2N2N2M2N2N2N2M2N2N2N2M2N2N2        ",
"        D2D2D2D2D2D2D2D2D2D2C2B2242424242424242424A2;2:2D2D2928224242424242424242424247262D2D2D2D2D2D2D2D2D2D2D2D2D2D2D2        ",
"        5242424242424242424232221202z1y1242424x1w1v1u14232t1s1242424242424242424242424r142424242424242424242424242424252        ",
"        q1p1p1p1p1p1p1p1p1p1p1p1p1o1n1m1l1k1j1i1h1p1p1o1g1f124242424242424242424242424e1p1p1p1p1p1p1p1p1p1p1p1p1p1p1p1q1        ",
"        d1c1b1b1b1c1b1b1b1c1b1b1b1c1b1b1b1c1b1b1b1c1b1a1Z12424242424242424242424242424Y1b1c1b1b1b1c1b1b1b1c1b1b1b1c1b1d1        ",
"        X1W1W1W1W1W1W1W1W1W1W1W1W1W1W1W1W1W1W1W1W1W1W1Y12424242424242424242424242424P2V1W1W1W1W1W1W1W1W1W1W1W1W1W1W1W1X1        ",
"        U1T1T1T1T1T1T1T1T1T1T1T1T1T1T1T1T1T1T1T1T1T1T1S1R124242424242424242424242424Q1P1T1T1T1T1T1T1T1T1T1T1T1T1T1T1T1U1        ",
"          O1N1N1N1M1N1N1N1M1N1N1N1M1N1N1N1M1N1N1N1M1N1N1L1K1J12424242424242424242424I1S1N1M1N1N1N1M1N1N1N1M1N1N1N1M1O1          ",
"          H1G1M1G1G1G1M1G1G1G1M1G1G1G1M1G1G1G1M1G1G1G1M1G1M1F1E124242424242424242424D1M1G1G1G1M1G1G1G1M1G1G1G1M1G1G1H1          ",
"          C1B1A1A1A1A1A1A1A1A1A1A1A1A1A1A1A1A1A1A1A1A1A1A1A1A1;1:191242424242424242481A1A1A1A1A1A1A1A1A1A1A1A1A1A1B1C1          ",
"            71616161616161616161616161616161616161616161616161616151412424242424242431616161616161616161616161616171            ",
"            2111111111111111111111111111111111111111111111111111111101z0y024242424x0w0111111111111111111111111111121            ",
"              v0u0u0u0u0u0u0u0u0u0u0u0u0u0u0u0u0u0u0u0u0u0u0u0u0u0u0u0t0s0r0242424q0p0u0u0u0u0u0u0u0u0u0u0u0u0u0v0              ",
"              o0n0n0n0n0n0n0n0n0n0n0n0n0n0n0n0n0n0n0n0n0n0n0n0n0n0n0n0n0n0m0l0k0j0i0n0n0n0n0n0n0n0n0n0n0n0n0n0n0h0              ",
"                g0f0f0f0f0f0f0f0f0f0f0f0f0f0f0f0f0f0f0f0f0f0f0f0f0f0f0f0f0f0f0f0f0f0f0f0f0f0f0f0f0f0f0f0f0f0f0g0                ",
"                  e0d0d0d0d0d0d0d0d0d0d0d0d0d0d0d0d0d0d0d0d0d0d0d0d0d0d0d0d0d0d0d0d0d0d0d0d0d0d0d0d0d0d0d0d0e0                  ",
"                  c0b0a0a0Z0a0a0a0Z0a0a0a0Z0a0a0a0Z0a0a0a0Z0a0a0a0Z0a0a0a0Z0a0a0a0Z0a0a0a0Z0a0a0a0Z0a0a0a0b0Y0                  ",
"                    X0W0W0V0W0W0W0V0W0W0W0V0W0W0W0V0W0W0W0V0W0W0W0V0W0W0W0V0W0W0W0V0W0W0W0V0W0W0W0V0W0W0W0X0                    ",
"                      U0T0T0S0S0S0T0S0S0S0T0S0S0S0T0S0S0S0T0S0S0S0T0S0S0S0T0S0S0S0T0S0S0S0T0S0S0S0T0S0S0R0                      ",
"                        Q0P0P0P0P0P0P0P0P0P0P0P0P0P0P0P0P0P0P0P0P0P0P0P0P0P0P0P0P0P0P0P0P0P0P0P0P0P0P0Q0                        ",
"                          O0N0M0M0M0M0M0M0M0M0M0M0M0M0M0M0M0M0M0M0M0M0M0M0M0M0M0M0M0M0M0M0M0M0M0M0N0O0                          ",
"                            L0K0J0I0J0J0J0I0J0J0J0I0J0J0J0I0J0J0J0I0J0J0J0I0J0J0J0I0J0J0J0I0J0J0H0G0                            ",
"                                F0E0D0D0D0D0D0D0D0D0D0D0D0D0D0D0D0D0D0D0D0D0D0D0D0D0D0D0D0D0D0K0                                ",
"                                  C0B0A0A0A0A0A0A0A0A0A0A0A0A0A0A0A0A0A0A0A0A0A0A0A0A0A0A0B0C0                                  ",
"                                      ;0:090909090909090909090909090909090909090909090:0;0                                      ",
"                                          80706050505070505050705050507050505050607080                                          ",
"                                                40302010705050505050507010203040                                                ",
"                                                              0000                                                              ",
"                                                                                                                                ",
"                                                                                                                                ",
"                                                                                                                                "};
